<?xml version="1.0" encoding="UTF-8"?>
<svg version="1.1" xmlns="http://www.w3.org/2000/svg" width="96" height="96">
<path d="M0 0 C1.34579636 -0.00786278 1.34579636 -0.00786278 2.71878052 -0.0158844 C4.60629243 -0.02227312 6.49384433 -0.02100871 8.38134766 -0.01245117 C11.24324696 -0.00394952 14.1031414 -0.03273293 16.96484375 -0.06445312 C36.84293327 -0.14148947 36.84293327 -0.14148947 43.96411133 5.73950195 C49.90932598 12.07000505 50.84497261 19.8180837 50.81640625 28.05078125 C50.8216481 28.94797882 50.82688995 29.84517639 50.83229065 30.76956177 C50.83867937 32.65707368 50.83741496 34.54462558 50.82885742 36.43212891 C50.82035577 39.29402821 50.84913918 42.15392265 50.88085938 45.015625 C50.95789572 64.89371452 50.95789572 64.89371452 45.0769043 72.01489258 C38.7464012 77.96010723 30.99832255 78.89575386 22.765625 78.8671875 C21.86842743 78.87242935 20.97122986 78.8776712 20.04684448 78.8830719 C18.15933257 78.88946062 16.27178067 78.88819621 14.38427734 78.87963867 C11.52237804 78.87113702 8.6624836 78.89992043 5.80078125 78.93164062 C-14.07730827 79.00867697 -14.07730827 79.00867697 -21.19848633 73.12768555 C-27.14370098 66.79718245 -28.07934761 59.0491038 -28.05078125 50.81640625 C-28.0560231 49.91920868 -28.06126495 49.02201111 -28.06666565 48.09762573 C-28.07305437 46.21011382 -28.07178996 44.32256192 -28.06323242 42.43505859 C-28.05473077 39.57315929 -28.08351418 36.71326485 -28.11523438 33.8515625 C-28.19227072 13.97347298 -28.19227072 13.97347298 -22.3112793 6.85229492 C-15.9807762 0.90708027 -8.23269755 -0.02856636 0 0 Z M-16.6171875 11.43359375 C-25.53758772 22.93621508 -22.22118237 44.66513463 -21.03125 58.4375 C-20.68359955 60.73929174 -20.68359955 60.73929174 -18.6171875 63.43359375 C-18.25367188 62.96308594 -17.89015625 62.49257812 -17.515625 62.0078125 C-17.01289063 61.38519531 -16.51015625 60.76257813 -15.9921875 60.12109375 C-15.26128906 59.19876953 -15.26128906 59.19876953 -14.515625 58.2578125 C-9.77114596 53.69881721 -4.7437657 52.9746557 1.59765625 53 C2.37162247 52.99475815 3.14558868 52.9895163 3.94300842 52.9841156 C5.57258917 52.97772018 7.20221623 52.97900015 8.83178711 52.98754883 C11.30992741 52.99605809 13.78575885 52.9672677 16.26367188 52.93554688 C17.85416598 52.93393444 19.44466413 52.93451321 21.03515625 52.9375 C22.13391335 52.92064903 22.13391335 52.92064903 23.25486755 52.90345764 C29.36044425 52.98518117 33.66865002 54.83276992 38.16015625 59.13671875 C39.234375 60.56901042 40.30859375 62.00130208 41.3828125 63.43359375 C47.90310635 53.65315298 45.16776277 32.04404335 43.84375 20.62890625 C42.75161701 15.4273915 40.57387183 12.35727241 36.3203125 9.05859375 C24.24858805 3.14900479 -5.88400737 3.10990304 -16.6171875 11.43359375 Z M-11.0546875 63.87109375 C-12.96425912 66.50257423 -12.96425912 66.50257423 -12.6171875 70.43359375 C0.23511786 74.71769554 22.53050714 74.71769554 35.3828125 70.43359375 C35.18376906 66.15415969 34.66078284 64.71156409 31.5703125 61.62109375 C25.38329189 57.37509922 18.86206055 58.21559264 11.5703125 58.18359375 C9.82524414 58.15265625 9.82524414 58.15265625 8.04492188 58.12109375 C0.37205891 58.08615755 -5.38895553 58.20536178 -11.0546875 63.87109375 Z " fill="#F9F9F9" transform="translate(36.6171875,8.56640625)"/>
<path d="M0 0 C5.07060405 2.69760613 9.01486934 6.86492052 10.83203125 12.31640625 C11.49720599 19.7750869 11.49634229 25.30189991 6.83203125 31.31640625 C2.26203618 35.88640132 -1.47903697 37.47365282 -7.91796875 37.62890625 C-14.37510323 37.55880467 -17.99886032 36.48551468 -22.6640625 31.8203125 C-27.31452244 26.5374954 -27.5188959 22.10597351 -27.4453125 15.328125 C-26.92148378 9.63978772 -24.3559427 6.18309529 -20.10546875 2.44140625 C-14.4332114 -1.66192886 -6.67039789 -2.10327861 0 0 Z M-16.16796875 8.31640625 C-19.64994481 11.70675136 -21.070344 14.43516893 -21.16796875 19.31640625 C-19.57446894 24.45101675 -17.8007618 27.51518255 -13.16796875 30.31640625 C-9.29302292 31.57997554 -7.4648207 31.40853272 -3.54296875 30.19140625 C1.00282078 27.66596762 3.15394696 25.39586474 4.76953125 20.44140625 C4.85188489 16.32372414 3.82560954 13.90484718 1.83203125 10.31640625 C-3.92101297 4.40787435 -9.12578135 4.40407992 -16.16796875 8.31640625 Z " fill="#F9F9F9" transform="translate(56.16796875,17.68359375)"/>
</svg>
