<?xml version="1.0" encoding="UTF-8"?>
<svg version="1.1" xmlns="http://www.w3.org/2000/svg" width="96" height="96">
<path d="M0 0 C4.30105558 2.48983151 8.27088202 5.34891347 12.24316406 8.328125 C13.03722656 8.90626953 13.83128906 9.48441406 14.64941406 10.08007812 C30.44267468 21.79557063 30.44267468 21.79557063 32.05957031 31.0390625 C32.73888434 47.0358121 26.15990132 67.04010896 16.18066406 79.578125 C5.38252554 87.7425712 -9.52071606 85.77394144 -22.38183594 85.515625 C-23.99058594 85.49048828 -23.99058594 85.49048828 -25.63183594 85.46484375 C-32.36651246 85.13002318 -37.90360787 83.53660713 -43.38183594 79.515625 C-48.60000444 72.90200963 -51.20666189 65.07959267 -53.69433594 57.140625 C-54.04044922 56.07457031 -54.3865625 55.00851563 -54.74316406 53.91015625 C-57.61683548 45.00345538 -60.54620406 35.72583928 -57.73339844 26.35546875 C-51.23042676 14.15544923 -34.05890637 2.67646906 -21.73339844 -2.80859375 C-13.56822929 -5.15506262 -7.34722441 -3.86203784 0 0 Z M-30.75683594 11.140625 C-31.49562988 11.67260498 -32.23442383 12.20458496 -32.99560547 12.75268555 C-45.50023159 21.09783234 -45.50023159 21.09783234 -52.38183594 33.515625 C-51.10129639 46.08513163 -46.48875475 64.54361751 -38.38183594 74.515625 C-31.20371468 79.50910066 -21.96531019 78.69792625 -13.56933594 78.703125 C-12.54001953 78.71537109 -11.51070312 78.72761719 -10.45019531 78.74023438 C1.15574085 78.87222774 1.15574085 78.87222774 11.49316406 74.390625 C16.40219466 67.74899537 18.86671967 60.31599616 21.30566406 52.515625 C21.61310547 51.56945313 21.92054687 50.62328125 22.23730469 49.6484375 C25.4196102 39.92652651 25.4196102 39.92652651 24.61816406 29.953125 C17.84253438 18.30751148 1.11309061 6.74390002 -11.50683594 2.453125 C-18.95465005 2.615034 -24.94538288 6.91405322 -30.75683594 11.140625 Z " fill="#F9F9F9" transform="translate(61.3818359375,8.484375)"/>
<path d="M0 0 C0.89460938 -0.00128906 1.78921875 -0.00257812 2.7109375 -0.00390625 C3.65195312 -0.00003906 4.59296875 0.00382812 5.5625 0.0078125 C6.97402344 0.00201172 6.97402344 0.00201172 8.4140625 -0.00390625 C9.75597656 -0.00197266 9.75597656 -0.00197266 11.125 0 C11.95128906 0.00112793 12.77757813 0.00225586 13.62890625 0.00341797 C15.5625 0.1328125 15.5625 0.1328125 16.5625 1.1328125 C16.60313832 2.79898365 16.605221 4.46669345 16.5625 6.1328125 C14.29176921 7.2681779 13.01966721 7.26173662 10.5 7.265625 C9.70335937 7.26691406 8.90671875 7.26820312 8.0859375 7.26953125 C7.25320312 7.26566406 6.42046875 7.26179688 5.5625 7.2578125 C4.31339844 7.26361328 4.31339844 7.26361328 3.0390625 7.26953125 C2.24242187 7.26824219 1.44578125 7.26695313 0.625 7.265625 C-0.10589844 7.26449707 -0.83679687 7.26336914 -1.58984375 7.26220703 C-3.4375 7.1328125 -3.4375 7.1328125 -5.4375 6.1328125 C-5.480221 4.46669345 -5.47813832 2.79898365 -5.4375 1.1328125 C-3.84812444 -0.45656306 -2.19850154 0.00300107 0 0 Z " fill="#F9F9F9" transform="translate(42.4375,67.8671875)"/>
</svg>
