<?xml version="1.0" encoding="UTF-8"?>
<svg version="1.1" xmlns="http://www.w3.org/2000/svg" width="96" height="96">
<path d="M0 0 C0.96873047 -0.03738281 1.93746094 -0.07476562 2.93554688 -0.11328125 C9.76474829 -0.19639526 13.95999264 1.09801903 19.3125 5.375 C18.9825 7.025 18.6525 8.675 18.3125 10.375 C14.59650809 10.57586443 13.54041555 10.5269437 10.3125 8.375 C3.36136894 6.26859665 -5.02554493 6.63184203 -11.6875 9.375 C-16.1035681 13.20225902 -18.88117563 16.53412722 -19.6875 22.375 C-19.79181991 24.94425041 -19.85136079 27.48562994 -19.85546875 30.0546875 C-19.85879715 30.78567657 -19.86212555 31.51666565 -19.86555481 32.26980591 C-19.87060041 33.8112119 -19.87296387 35.35262873 -19.87280273 36.89404297 C-19.87498651 39.23553724 -19.89315955 41.57655784 -19.91210938 43.91796875 C-19.91504446 45.4218734 -19.91702849 46.92578028 -19.91796875 48.4296875 C-19.92515427 49.12158173 -19.93233978 49.81347595 -19.93974304 50.52633667 C-19.91182686 56.5515706 -19.26147997 61.55886927 -15.25 66.1875 C-8.83529624 71.66346663 -2.85648461 71.90858842 5.3125 71.375 C9.67195593 70.63791101 9.67195593 70.63791101 13.3125 68.375 C14.97867115 68.33436168 16.64638095 68.332279 18.3125 68.375 C18.6425 70.025 18.9725 71.675 19.3125 73.375 C13.08808981 78.59004638 8.52793302 78.63696623 0.6875 78.75 C-0.27285156 78.78738281 -1.23320313 78.82476562 -2.22265625 78.86328125 C-9.22976895 78.94884979 -14.03599591 77.57925979 -19.6875 73.375 C-21.84375 71.2421875 -21.84375 71.2421875 -23.1875 69.25 C-23.6515625 68.58742188 -24.115625 67.92484375 -24.59375 67.2421875 C-26.42249864 64.12025232 -26.82224658 61.49517825 -26.88037109 57.95458984 C-26.89643402 57.06291107 -26.91249695 56.1712323 -26.92904663 55.25253296 C-26.97374144 51.16494661 -27.01458721 47.07752018 -27.03759766 42.98974609 C-27.0541175 40.8405471 -27.08135461 38.69140213 -27.11962891 36.54248047 C-27.17470854 33.43167836 -27.19632228 30.32216318 -27.2109375 27.2109375 C-27.23360687 26.26060638 -27.25627625 25.31027527 -27.27963257 24.33114624 C-27.25550422 16.62209547 -25.02645428 10.75064608 -19.5546875 5.21875 C-18.89726562 4.7753125 -18.23984375 4.331875 -17.5625 3.875 C-16.89992188 3.4109375 -16.23734375 2.946875 -15.5546875 2.46875 C-10.67730568 -0.38829374 -5.4807525 0.07865398 0 0 Z " fill="#FAFAFA" transform="translate(35.6875,8.625)"/>
<path d="M0 0 C0.765625 2.23828125 0.765625 2.23828125 1 5 C-0.765625 7.16796875 -0.765625 7.16796875 -3.25 9.1875 C-4.05953125 9.86167969 -4.8690625 10.53585938 -5.703125 11.23046875 C-7.41982994 12.55303225 -9.19687769 13.79791846 -11 15 C5.83 15.33 22.66 15.66 40 16 C40.495 18.475 40.495 18.475 41 21 C39.36040763 22.63959237 37.4665562 22.16642287 35.20483398 22.20532227 C34.18385117 22.22526749 33.16286835 22.24521271 32.11094666 22.26576233 C31.0005452 22.28247482 29.89014374 22.29918732 28.74609375 22.31640625 C27.61551041 22.33718735 26.48492706 22.35796844 25.32008362 22.37937927 C21.69262015 22.44499797 18.06508167 22.50381677 14.4375 22.5625 C11.98501814 22.60567351 9.532544 22.6492874 7.08007812 22.69335938 C1.05346573 22.80069184 -4.97322201 22.9024349 -11 23 C-10.21753906 23.59167969 -9.43507813 24.18335937 -8.62890625 24.79296875 C-7.61699219 25.58316406 -6.60507812 26.37335937 -5.5625 27.1875 C-4.55316406 27.96480469 -3.54382813 28.74210937 -2.50390625 29.54296875 C0.14734978 32.14459128 0.85449161 33.33698455 1 37 C0 38 0 38 -2.11328125 38.42578125 C-6.52394757 37.77522289 -8.95418464 35.11674181 -12.1875 32.1875 C-12.81591797 31.64029297 -13.44433594 31.09308594 -14.09179688 30.52929688 C-20.78333333 24.625 -20.78333333 24.625 -21.5 19.25 C-21.35952103 14.97319581 -19.9150848 12.82685681 -16.98046875 9.80859375 C-5.61501445 -0.57050949 -5.61501445 -0.57050949 0 0 Z " fill="#F9F9F9" transform="translate(46,29)"/>
</svg>
