<?xml version="1.0" encoding="UTF-8"?>
<svg version="1.1" xmlns="http://www.w3.org/2000/svg" width="96" height="96">
<path d="M0 0 C0.96035156 -0.03738281 1.92070313 -0.07476562 2.91015625 -0.11328125 C9.91726895 -0.19884979 14.72349591 1.17074021 20.375 5.375 C22.53125 7.5078125 22.53125 7.5078125 23.875 9.5 C24.3390625 10.16257812 24.803125 10.82515625 25.28125 11.5078125 C27.10999864 14.62974768 27.50974658 17.25482175 27.56787109 20.79541016 C27.58393402 21.68708893 27.59999695 22.5787677 27.61654663 23.49746704 C27.66124144 27.58505339 27.70208721 31.67247982 27.72509766 35.76025391 C27.7416175 37.9094529 27.76885461 40.05859787 27.80712891 42.20751953 C27.86220854 45.31832164 27.88382228 48.42783682 27.8984375 51.5390625 C27.92110687 52.48939362 27.94377625 53.43972473 27.96713257 54.41885376 C27.94300422 62.12790453 25.71395428 67.99935392 20.2421875 73.53125 C19.58476563 73.9746875 18.92734375 74.418125 18.25 74.875 C17.58742187 75.3390625 16.92484375 75.803125 16.2421875 76.28125 C11.36480568 79.13829374 6.1682525 78.67134602 0.6875 78.75 C-0.28123047 78.78738281 -1.24996094 78.82476562 -2.24804688 78.86328125 C-9.07724829 78.94639526 -13.27249264 77.65198097 -18.625 73.375 C-18.295 71.725 -17.965 70.075 -17.625 68.375 C-13.90900809 68.17413557 -12.85291555 68.2230563 -9.625 70.375 C-2.67386894 72.48140335 5.71304493 72.11815797 12.375 69.375 C16.7910681 65.54774098 19.56867563 62.21587278 20.375 56.375 C20.47931991 53.80574959 20.53886079 51.26437006 20.54296875 48.6953125 C20.54629715 47.96432343 20.54962555 47.23333435 20.55305481 46.48019409 C20.55810041 44.9387881 20.56046387 43.39737127 20.56030273 41.85595703 C20.56248651 39.51446276 20.58065955 37.17344216 20.59960938 34.83203125 C20.60254446 33.3281266 20.60452849 31.82421972 20.60546875 30.3203125 C20.61265427 29.62841827 20.61983978 28.93652405 20.62724304 28.22366333 C20.59932686 22.1984294 19.94897997 17.19113073 15.9375 12.5625 C9.52279624 7.08653337 3.54398461 6.84141158 -4.625 7.375 C-8.98445593 8.11208899 -8.98445593 8.11208899 -12.625 10.375 C-14.29117115 10.41563832 -15.95888095 10.417721 -17.625 10.375 C-17.955 8.725 -18.285 7.075 -18.625 5.375 C-12.40058981 0.15995362 -7.84043302 0.11303377 0 0 Z " fill="#FAFAFA" transform="translate(59.625,8.625)"/>
<path d="M0 0 C4.41066632 0.65055836 6.84090339 3.30903944 10.07421875 6.23828125 C10.70263672 6.78548828 11.33105469 7.33269531 11.97851562 7.89648438 C18.67005208 13.80078125 18.67005208 13.80078125 19.38671875 19.17578125 C19.24623978 23.45258544 17.80180355 25.59892444 14.8671875 28.6171875 C4.24431321 38.31815554 4.24431321 38.31815554 0.078125 38.6484375 C-0.64503906 38.57496094 -1.36820313 38.50148437 -2.11328125 38.42578125 C-2.87890625 36.1875 -2.87890625 36.1875 -3.11328125 33.42578125 C-1.34765625 31.2578125 -1.34765625 31.2578125 1.13671875 29.23828125 C1.94625 28.56410156 2.75578125 27.88992187 3.58984375 27.1953125 C5.30654869 25.872749 7.08359644 24.62786279 8.88671875 23.42578125 C-7.94328125 23.09578125 -24.77328125 22.76578125 -42.11328125 22.42578125 C-42.44328125 20.77578125 -42.77328125 19.12578125 -43.11328125 17.42578125 C-41.47368888 15.78618888 -39.57983745 16.25935838 -37.31811523 16.22045898 C-36.29713242 16.20051376 -35.2761496 16.18056854 -34.22422791 16.16001892 C-33.11382645 16.14330643 -32.00342499 16.12659393 -30.859375 16.109375 C-29.72879166 16.0885939 -28.59820831 16.06781281 -27.43336487 16.04640198 C-23.8059014 15.98078328 -20.17836292 15.92196448 -16.55078125 15.86328125 C-14.09829939 15.82010774 -11.64582525 15.77649385 -9.19335938 15.73242188 C-3.16674698 15.62508941 2.85994076 15.52334635 8.88671875 15.42578125 C8.10425781 14.83410156 7.32179687 14.24242187 6.515625 13.6328125 C5.50371094 12.84261719 4.49179687 12.05242188 3.44921875 11.23828125 C1.93521484 10.07232422 1.93521484 10.07232422 0.390625 8.8828125 C-2.26063103 6.28118997 -2.96777286 5.0887967 -3.11328125 1.42578125 C-2.11328125 0.42578125 -2.11328125 0.42578125 0 0 Z " fill="#F9F9F9" transform="translate(52.11328125,28.57421875)"/>
</svg>
