<?xml version="1.0" encoding="UTF-8"?>
<svg version="1.1" xmlns="http://www.w3.org/2000/svg" width="96" height="96">
<path d="M0 0 C1.6505347 -0.01649564 3.30099986 -0.04370087 4.95117188 -0.08203125 C24.56272856 -0.53427288 24.56272856 -0.53427288 32.56494141 6.93530273 C35.86669922 10.64328297 35.86669922 10.64328297 35.86669922 13.35009766 C36.65173828 12.98916016 37.43677734 12.62822266 38.24560547 12.25634766 C49.51297073 7.27935196 49.51297073 7.27935196 54.86669922 8.35009766 C58.32629548 10.41799269 60.56291124 12.43873373 61.86669922 16.35009766 C61.98781713 19.15654646 62.054853 21.93736536 62.06982422 24.74462891 C62.07552429 25.56960373 62.08122437 26.39457855 62.08709717 27.24455261 C62.09654045 28.99041464 62.10307848 30.73629443 62.10693359 32.48217773 C62.11662507 35.14224683 62.14764834 37.80153844 62.17919922 40.46142578 C62.18573111 42.15998892 62.19098085 43.85855756 62.19482422 45.55712891 C62.20717102 46.34795364 62.21951782 47.13877838 62.23223877 47.9535675 C62.21277628 52.82163802 61.53237974 56.11759162 58.86669922 60.35009766 C55.17365225 63.05325574 51.88699317 62.37067953 47.55029297 61.84228516 C43.49972827 61.09938683 39.70447737 59.82402695 35.86669922 58.35009766 C35.35107422 59.23697266 34.83544922 60.12384766 34.30419922 61.03759766 C31.63567166 65.04513727 27.86746198 68.34002514 23.25 69.89428711 C17.54710617 70.98497578 11.52735128 70.65787029 5.73339844 70.70019531 C4.08286374 70.71669096 2.43239858 70.74389618 0.78222656 70.78222656 C-17.6424189 71.20709807 -17.6424189 71.20709807 -25.13330078 65.35009766 C-32.91899668 57.049645 -32.40421273 49.05667793 -32.48339844 38.21679688 C-32.49989408 36.56626218 -32.52709931 34.91579701 -32.56542969 33.265625 C-32.9903012 14.84097953 -32.9903012 14.84097953 -27.13330078 7.35009766 C-18.83284813 -0.43559824 -10.83988106 0.07918571 0 0 Z M-20.13330078 10.16259766 C-28.32511129 19.1223904 -26.63890587 32.85353794 -26.13330078 44.35009766 C-25.56871111 50.63205107 -24.98986014 55.90981481 -20.13330078 60.35009766 C-11.69745047 67.0987779 5.00754491 64.96656317 15.30029297 64.04150391 C21.78340752 63.04748499 25.44936363 61.37176714 29.61669922 56.16259766 C34.43741435 45.3159886 33.11820987 26.61097917 29.86669922 15.35009766 C27.55218433 11.43936561 25.01764744 9.19496353 20.86669922 7.35009766 C8.94632979 5.1276559 -9.48241946 3.72769019 -20.13330078 10.16259766 Z M37.86669922 20.35009766 C37.86669922 30.25009766 37.86669922 40.15009766 37.86669922 50.35009766 C45.23785899 54.21629769 45.23785899 54.21629769 52.86669922 55.35009766 C57.43295138 50.7838455 56.05007327 41.55674254 56.05419922 35.47509766 C56.07256836 34.06164063 56.07256836 34.06164063 56.09130859 32.61962891 C56.10389375 26.55358345 55.39235504 21.22357104 53.86669922 15.35009766 C47.61149695 15.00526187 47.61149695 15.00526187 37.86669922 20.35009766 Z " fill="#F9F9F9" transform="translate(33.13330078125,12.64990234375)"/>
<path d="M0 0 C2.59978642 0.9512564 4.84918108 2.27975265 7.1875 3.75 C7.77724609 4.09804688 8.36699219 4.44609375 8.97460938 4.8046875 C18.16146661 10.32293323 18.16146661 10.32293323 20 14 C20.58529693 18.7241824 20.90396083 22.65964429 18.1875 26.6875 C1.897635 38.50563735 1.897635 38.50563735 -6.03125 38.328125 C-9.14316604 37.80947233 -10.85067869 36.21445226 -13 34 C-15.1615286 29.67694281 -14.27426848 23.93585536 -14.3125 19.1875 C-14.34150391 17.99833984 -14.37050781 16.80917969 -14.40039062 15.58398438 C-14.40876953 14.43607422 -14.41714844 13.28816406 -14.42578125 12.10546875 C-14.44036377 11.05512451 -14.45494629 10.00478027 -14.4699707 8.92260742 C-13.88395186 5.27833125 -12.53266275 3.63226019 -10 1 C-6.78101324 -0.60949338 -3.4935123 -0.43244742 0 0 Z M-6 7 C-9.03043931 13.81848846 -8.89726823 21.63524413 -7 28.75 C-6.67 29.4925 -6.34 30.235 -6 31 C-0.9821365 31.65117313 2.22799277 29.41186786 6.25 26.75 C6.88679688 26.35425781 7.52359375 25.95851563 8.1796875 25.55078125 C11.6635576 23.37567751 11.6635576 23.37567751 13.79980469 20.00097656 C14.2529035 17.77097614 14.2529035 17.77097614 12.1875 15.625 C7.82542946 11.70280212 2.15464971 7.18840269 -3.8125 6.83203125 C-4.534375 6.88746094 -5.25625 6.94289063 -6 7 Z " fill="#F9F9F9" transform="translate(35,29)"/>
</svg>
