<?xml version="1.0" encoding="UTF-8"?>
<svg version="1.1" xmlns="http://www.w3.org/2000/svg" width="96" height="96">
<path d="M0 0 C0.495 8.91 0.495 8.91 1 18 C2.52625 17.814375 4.0525 17.62875 5.625 17.4375 C9.92908376 16.91403035 12.47617457 17.24602909 17 18 C17.33 12.06 17.66 6.12 18 0 C31.14499174 1.64312397 39.45856902 7.37041511 48.04296875 17.3828125 C57.10857508 29.40585544 58.42115821 42.39036923 57 57 C54.89579543 68.47974327 47.99110271 78.64527799 39 86 C32.34238451 90.59036227 26.24220831 94.13806044 18 94 C16.61277986 80.29271288 16.61277986 80.29271288 18 74 C21.12017544 70.3758787 24.72049711 68.97376226 29 67 C34.13096485 62.39942702 35.94443995 55.61359751 37 49 C37.31644632 41.25339397 34.29077083 34.73310802 30.3125 28.25 C28.05650154 26.05497447 26.10346505 24.84797569 23.35546875 23.359375 C22.54102295 22.91561523 21.72657715 22.47185547 20.88745117 22.01464844 C20.26459229 21.67981445 19.6417334 21.34498047 19 21 C19.02618408 21.87736816 19.05236816 22.75473633 19.0793457 23.65869141 C19.16490909 26.93522757 19.22740867 30.21056558 19.2746582 33.48779297 C19.29969925 34.90204682 19.33374342 36.31617257 19.37719727 37.72998047 C19.77462204 50.99929234 19.77462204 50.99929234 16.69921875 54.89453125 C13.31689357 57.53284278 11.27912588 58.07641296 7 58 C3.27193865 56.39015532 1.06275144 54.47556986 -1 51 C-1.34057617 47.79199219 -1.34057617 47.79199219 -1.29296875 44.046875 C-1.28872391 43.38665344 -1.28447906 42.72643188 -1.28010559 42.04620361 C-1.26337435 39.94704609 -1.22573551 37.84886504 -1.1875 35.75 C-1.17244584 34.32293058 -1.15875871 32.89584604 -1.14648438 31.46875 C-1.11349001 27.97885183 -1.06174743 24.4895213 -1 21 C-2.60933286 21.92691691 -4.21389124 22.86212645 -5.81640625 23.80078125 C-6.71045166 24.32067627 -7.60449707 24.84057129 -8.52563477 25.3762207 C-14.72399925 29.44384006 -16.87838574 35.20630492 -18.55859375 42.234375 C-19.96323701 51.03514871 -16.87120398 58.25147033 -12.375 65.6875 C-10.20135082 68.11340291 -10.20135082 68.11340291 -7.5234375 68.9296875 C-4.1736466 70.29791195 -2.34696938 71.20033802 0 74 C1.33668238 80.52169337 0.60007986 87.4175855 0 94 C-12.90990428 92.689904 -21.63740367 86.42100146 -30.04296875 76.6171875 C-39.10857508 64.59414456 -40.42115821 51.60963077 -39 37 C-36.89579543 25.52025673 -29.99110271 15.35472201 -21 8 C-14.24473859 3.3423118 -8.3543356 0 0 0 Z " fill="#5028F1" transform="translate(39,0)"/>
</svg>
